<svg xmlns="http://www.w3.org/2000/svg" fill="none" viewBox="0 0 256 256"><path stroke="#3178c6" stroke-width="12" d="M233.837 67.46v121.079L128.99 249.071l-104.827-60.52v-121.1L128.99 6.928z"/><path fill="#3178c6" d="M221.837 74.389V181.61l-92.847 53.605-92.827-53.593V74.38l92.828-53.596z"/><mask id="a" width="186" height="216" x="36" y="20" maskUnits="userSpaceOnUse" style="mask-type:alpha"><path fill="#3178c6" d="M221.837 74.389V181.61l-92.847 53.605-92.827-53.593V74.38l92.828-53.596z"/></mask><g mask="url(#a)"><path fill="#fff" fill-rule="evenodd" d="M140.212 192.013v23.305q5.652 2.912 13.368 4.368t16.267 1.457q8.333 0 15.831-1.602 7.5-1.601 13.151-5.28 5.651-3.677 8.949-9.614 3.296-5.934 3.296-14.673 0-6.336-1.883-11.106a26 26 0 0 0-5.435-8.484q-3.55-3.714-8.513-6.664t-11.195-5.571q-4.565-1.893-8.187-3.677-3.624-1.785-6.159-3.642-2.536-1.857-3.913-3.932t-1.377-4.697q0-2.404 1.232-4.334t3.478-3.313q2.246-1.384 5.507-2.148t7.245-.765q2.899 0 6.123.437 3.224.436 6.485 1.347a45 45 0 0 1 6.34 2.294 35 35 0 0 1 5.688 3.204v-21.774q-5.29-2.04-11.557-3.023t-14.383-.983q-8.26 0-15.65 1.784t-13.006 5.571q-5.615 3.788-8.876 9.65t-3.261 14.019q0 10.415 5.978 17.769 5.978 7.356 18.15 12.453a246 246 0 0 1 8.912 3.86q4.131 1.893 7.137 3.933 3.007 2.039 4.745 4.442 1.74 2.403 1.74 5.462a8.4 8.4 0 0 1-1.086 4.187q-1.088 1.93-3.297 3.35t-5.507 2.221q-3.297.801-7.717.801-7.535 0-14.926-2.658-7.39-2.657-13.694-7.974m-39.063-58.01h30.338v-19.198H46.926v19.198h30.19v85.479h24.033z" clip-rule="evenodd"/></g></svg>
